<?xml version="1.0" encoding="utf-8"?>
<!-- Generator: Adobe Illustrator 26.0.2, SVG Export Plug-In . SVG Version: 6.00 Build 0)  -->
<svg version="1.1" id="Camada_1" xmlns="http://www.w3.org/2000/svg" xmlns:xlink="http://www.w3.org/1999/xlink" x="0px" y="0px"
	 viewBox="0 0 441 316" style="enable-background:new 0 0 441 316;" xml:space="preserve">
<style type="text/css">
	.st0{fill:#005DA1;}
	.st1{fill:#E80000;}
	.st2{enable-background:new    ;}
	.st3{fill:#FFFFFF;}
	.st4{fill:#FCFCFC;}
</style>
<g id="azul1">
	<path class="st0" d="M6.3,151.6c0,0,210.4-146.1,210.7-143.8v143.8H6.3z"/>
</g>
<g id="azul2">
	<path class="st0" d="M436.8,162.9c0,0-210.4,146.1-210.8,143.8V162.9H436.8z"/>
</g>
<g id="verm1">
	<path class="st1" d="M436.8,152.4c0,0-210.4-146.1-210.8-143.8v143.8H436.8z"/>
</g>
<g id="verm2">
	<path class="st1" d="M6.3,163.7c0,0,210.4,146.1,210.7,143.8V163.7H6.3z"/>
</g>
<g id="E">
	<g class="st2">
		<path class="st3" d="M254.6,132.1V69.5h76.1v7.4h-62.2V96h58.2v7.3h-58.2v21.3h64.6v7.4H254.6z"/>
	</g>
</g>
<g id="w">
	<g class="st2">
		<path class="st3" d="M128.8,126.1L94.3,88.8h16.2l19.5,22.4c2.1,2.4,4,4.9,5.8,7.5c1.4-2,3.3-4.3,5.7-7.1l20.2-22.8h15.8
			l-34.3,37.3H128.8z"/>
	</g>
	<g class="st2">
		<path class="st3" d="M160.8,126.1l-33.2-37.3h15.6l18.8,22.4c2,2.4,3.9,4.9,5.6,7.5c1.3-2,3.2-4.3,5.5-7.1l19.4-22.8h15.2
			l-33.1,37.3H160.8z"/>
	</g>
	<rect x="111.7" y="132.9" class="st3" width="64.8" height="1.9"/>
</g>
<g id="W">
	<g class="st2">
		<path class="st3" d="M119.2,232.3l-33.1-57h12.2l22.2,41.4c1.8,3.3,3.3,6.4,4.5,9.3c1.3-3.1,2.9-6.2,4.6-9.3l23.1-41.4h11.5
			l-33.5,57H119.2z"/>
	</g>
	<g class="st2">
		<path class="st3" d="M162.1,232.3l-33.1-57h12.2l22.2,41.4c1.8,3.3,3.3,6.4,4.5,9.3c1.3-3.1,2.9-6.2,4.6-9.3l23.1-41.4h11.5
			l-33.5,57H162.1z"/>
	</g>
</g>
<g id="elite">
	<g class="st2">
		<path class="st4" d="M236,194.8v-7.7h18.7v0.9h-15.2v2.4h14.3v0.9h-14.3v2.6h15.8v0.9H236z"/>
		<path class="st4" d="M259.9,194.8v-7.7h3.4v6.8H276v0.9H259.9z"/>
		<path class="st4" d="M280.6,194.8v-7.7h3.4v7.7H280.6z"/>
		<path class="st4" d="M296.6,194.8V188h-8.5v-0.9h20.5v0.9H300v6.8H296.6z"/>
		<path class="st4" d="M312.2,194.8v-7.7h18.7v0.9h-15.2v2.4h14.3v0.9h-14.3v2.6h15.8v0.9H312.2z"/>
	</g>
</g>
<g id="way">
	<g class="st2">
		<path class="st3" d="M330.8,194.8l-5.5-8h2.8l3.1,5.3c0.3,0.6,0.6,1.1,0.9,1.6c0.5-0.9,0.8-1.4,0.9-1.5l3.9-5.4h3.3l3,4.1
			c0.7,1,1.3,2,1.6,2.8c0.3-0.5,0.6-1.1,1-1.8l3.2-5.2h2.7l-5.6,8h-2.6l-4.3-6.1c-0.4-0.5-0.6-0.8-0.6-0.9c-0.2,0.4-0.4,0.7-0.6,0.9
			l-4.4,6.1H330.8z"/>
	</g>
	<g class="st2">
		<path class="st3" d="M348.5,194.8l7.9-8h2.9l8.4,8h-3.1l-2.4-2.4h-8.6l-2.3,2.4H348.5z M354.4,191.5h7l-2.1-2.2
			c-0.7-0.7-1.1-1.2-1.5-1.7c-0.3,0.5-0.6,1-1.1,1.5L354.4,191.5z"/>
	</g>
	<g class="st2">
		<path class="st3" d="M371.5,194.8v-3.4l-7.9-4.6h3.3l4.1,2.4c0.8,0.5,1.4,0.9,2.1,1.4c0.6-0.4,1.4-0.9,2.2-1.4l4-2.4h3.2l-8.2,4.6
			v3.4H371.5z"/>
	</g>
</g>
<g id="school">
	<g class="st2">
		<path class="st3" d="M242.6,212.2l2.9-0.1c0.1,0.5,0.5,0.9,1,1.2c0.5,0.3,1.3,0.5,2.3,0.7c1.1,0.2,2.3,0.3,3.6,0.3
			c1.2,0,2.2-0.1,3.1-0.2c0.9-0.1,1.6-0.3,2-0.6c0.4-0.2,0.7-0.5,0.7-0.8c0-0.3-0.2-0.6-0.6-0.8c-0.4-0.2-1.1-0.4-2.1-0.6
			c-0.6-0.1-2-0.3-4.2-0.5s-3.6-0.4-4.5-0.6c-1.1-0.2-1.9-0.5-2.5-0.9c-0.5-0.4-0.8-0.7-0.8-1.2c0-0.5,0.3-0.9,1-1.3
			c0.7-0.4,1.6-0.7,2.9-0.9c1.3-0.2,2.7-0.3,4.3-0.3c1.7,0,3.3,0.1,4.6,0.3c1.3,0.2,2.3,0.6,3,1c0.7,0.4,1.1,0.9,1.1,1.5l-3,0.1
			c-0.2-0.6-0.7-1-1.6-1.4c-0.9-0.3-2.3-0.5-4.1-0.5c-1.9,0-3.2,0.1-4.1,0.4c-0.9,0.3-1.3,0.6-1.3,1c0,0.3,0.3,0.6,0.9,0.8
			c0.6,0.2,2.1,0.4,4.7,0.7c2.5,0.2,4.2,0.4,5.2,0.6c1.4,0.3,2.4,0.6,3,1c0.6,0.4,1,0.8,1,1.3c0,0.5-0.4,1-1.1,1.4s-1.7,0.8-3.1,1
			c-1.3,0.2-2.8,0.4-4.5,0.4c-2.1,0-3.9-0.1-5.3-0.4s-2.5-0.6-3.4-1.1C243.1,213.4,242.6,212.8,242.6,212.2z"/>
		<path class="st3" d="M282.1,211.9l3.1,0.3c-0.6,1-1.8,1.8-3.5,2.3c-1.7,0.5-3.7,0.8-6.2,0.8c-2.5,0-4.6-0.2-6.1-0.6
			s-2.8-1-3.6-1.8c-0.8-0.8-1.2-1.6-1.2-2.5c0-1,0.5-1.8,1.4-2.6c0.9-0.7,2.2-1.3,4-1.7c1.7-0.4,3.6-0.6,5.7-0.6
			c2.3,0,4.3,0.2,5.9,0.7c1.6,0.5,2.7,1.2,3.3,2l-3,0.3c-0.5-0.7-1.3-1.2-2.4-1.5c-1-0.3-2.3-0.5-3.9-0.5c-1.8,0-3.3,0.2-4.5,0.5
			c-1.2,0.3-2.1,0.8-2.5,1.4s-0.7,1.2-0.7,1.8c0,0.8,0.3,1.5,0.9,2.1c0.6,0.6,1.5,1,2.7,1.3c1.2,0.3,2.5,0.4,4,0.4
			c1.7,0,3.2-0.2,4.4-0.6S281.6,212.7,282.1,211.9z"/>
		<path class="st3" d="M289,215.2v-9.4h3.1v3.9h12.1v-3.9h3.1v9.4h-3.1v-4.5h-12.1v4.5H289z"/>
		<path class="st3" d="M311.6,210.6c0-1.6,1-2.8,3.1-3.7c2.1-0.9,4.8-1.3,8.1-1.3c2.2,0,4.1,0.2,5.8,0.6c1.7,0.4,3,1,4,1.7
			c0.9,0.7,1.4,1.6,1.4,2.5c0,1-0.5,1.8-1.4,2.6s-2.3,1.3-4.1,1.7c-1.8,0.4-3.6,0.6-5.7,0.6c-2.2,0-4.2-0.2-5.9-0.6
			c-1.7-0.4-3-1-3.9-1.8C312,212.2,311.6,211.4,311.6,210.6z M314.7,210.6c0,1.1,0.8,2,2.3,2.7c1.5,0.7,3.4,1,5.7,1
			c2.3,0,4.2-0.3,5.7-1s2.3-1.6,2.3-2.8c0-0.8-0.3-1.4-1-2c-0.6-0.6-1.6-1-2.8-1.3s-2.6-0.5-4.2-0.5c-2.2,0-4.1,0.3-5.6,0.9
			S314.7,209.2,314.7,210.6z"/>
		<path class="st3" d="M336.9,210.6c0-1.6,1-2.8,3.1-3.7c2.1-0.9,4.8-1.3,8.1-1.3c2.2,0,4.1,0.2,5.8,0.6c1.7,0.4,3,1,4,1.7
			c0.9,0.7,1.4,1.6,1.4,2.5c0,1-0.5,1.8-1.4,2.6s-2.3,1.3-4.1,1.7c-1.8,0.4-3.6,0.6-5.7,0.6c-2.2,0-4.2-0.2-5.9-0.6s-3-1-3.9-1.8
			C337.4,212.2,336.9,211.4,336.9,210.6z M340.1,210.6c0,1.1,0.8,2,2.3,2.7c1.5,0.7,3.4,1,5.7,1c2.3,0,4.2-0.3,5.7-1
			s2.3-1.6,2.3-2.8c0-0.8-0.3-1.4-1-2c-0.6-0.6-1.6-1-2.8-1.3s-2.6-0.5-4.2-0.5c-2.2,0-4.1,0.3-5.6,0.9S340.1,209.2,340.1,210.6z"/>
		<path class="st3" d="M363.1,215.2v-9.4h3.1v8.3h11.5v1.1H363.1z"/>
	</g>
</g>
</svg>
